<svg width="37" height="37" viewBox="0 0 37 37" fill="none" xmlns="http://www.w3.org/2000/svg">
<path d="M33.5312 27.75H28.9062V24.2812H32.375C32.5507 24.2812 32.7241 24.2411 32.882 24.1641C33.0399 24.087 33.1781 23.975 33.2862 23.8365C33.3943 23.698 33.4695 23.5367 33.5059 23.3648C33.5424 23.1929 33.5392 23.015 33.4966 22.8446L28.8716 4.34458C28.8089 4.09457 28.6645 3.87266 28.4613 3.7141C28.2581 3.55554 28.0077 3.46942 27.75 3.46942C27.4923 3.46942 27.2419 3.55554 27.0387 3.7141C26.8355 3.87266 26.6911 4.09457 26.6284 4.34458L22.0034 22.8446C21.9608 23.015 21.9576 23.1929 21.9941 23.3648C22.0305 23.5367 22.1057 23.698 22.2138 23.8365C22.3219 23.975 22.4601 24.087 22.618 24.1641C22.7759 24.2411 22.9493 24.2812 23.125 24.2812H26.5938V27.75H17.3438V25.4375H18.5C18.8067 25.4375 19.1008 25.3157 19.3176 25.0988C19.5344 24.882 19.6562 24.5879 19.6562 24.2812C19.6562 23.9746 19.5344 23.6805 19.3176 23.4636C19.1008 23.2468 18.8067 23.125 18.5 23.125H17.3438V20.8125H18.5C18.8067 20.8125 19.1008 20.6907 19.3176 20.4738C19.5344 20.257 19.6562 19.9629 19.6562 19.6562C19.6562 19.3496 19.5344 19.0555 19.3176 18.8386C19.1008 18.6218 18.8067 18.5 18.5 18.5H5.78125C5.47459 18.5 5.1805 18.6218 4.96366 18.8386C4.74682 19.0555 4.625 19.3496 4.625 19.6562C4.625 19.9629 4.74682 20.257 4.96366 20.4738C5.1805 20.6907 5.47459 20.8125 5.78125 20.8125H6.9375V23.125H5.78125C5.47459 23.125 5.1805 23.2468 4.96366 23.4636C4.74682 23.6805 4.625 23.9746 4.625 24.2812C4.625 24.5879 4.74682 24.882 4.96366 25.0988C5.1805 25.3157 5.47459 25.4375 5.78125 25.4375H6.9375V27.75H3.46875C3.16209 27.75 2.868 27.8718 2.65116 28.0886C2.43432 28.3055 2.3125 28.5996 2.3125 28.9062C2.3125 29.2129 2.43432 29.507 2.65116 29.7238C2.868 29.9407 3.16209 30.0625 3.46875 30.0625H33.5312C33.8379 30.0625 34.132 29.9407 34.3488 29.7238C34.5657 29.507 34.6875 29.2129 34.6875 28.9062C34.6875 28.5996 34.5657 28.3055 34.3488 28.0886C34.132 27.8718 33.8379 27.75 33.5312 27.75ZM15.0312 27.75H9.25V25.4375H15.0312V27.75ZM15.0312 23.125H9.25V20.8125H15.0312V23.125ZM16.7656 13.875C17.566 13.875 18.3484 13.6376 19.0139 13.193C19.6795 12.7483 20.1982 12.1162 20.5044 11.3768C20.8107 10.6373 20.8909 9.82361 20.7347 9.03859C20.5786 8.25357 20.1932 7.53249 19.6272 6.96652C19.0612 6.40056 18.3401 6.01513 17.5551 5.85898C16.7701 5.70283 15.9564 5.78297 15.217 6.08927C14.4775 6.39557 13.8454 6.91427 13.4008 7.57977C12.9561 8.24528 12.7188 9.0277 12.7188 9.8281C12.7188 10.9014 13.1451 11.9307 13.9041 12.6897C14.663 13.4486 15.6923 13.875 16.7656 13.875ZM16.7656 8.09372C17.1087 8.09372 17.444 8.19544 17.7292 8.38602C18.0144 8.57659 18.2367 8.84747 18.368 9.16438C18.4993 9.4813 18.5336 9.83002 18.4667 10.1665C18.3998 10.5029 18.2346 10.8119 17.992 11.0545C17.7495 11.297 17.4404 11.4622 17.104 11.5291C16.7675 11.5961 16.4188 11.5617 16.1019 11.4305C15.785 11.2992 15.5141 11.0769 15.3235 10.7917C15.133 10.5064 15.0312 10.1711 15.0312 9.8281C15.0312 9.36811 15.214 8.92697 15.5392 8.60171C15.8645 8.27645 16.3056 8.09372 16.7656 8.09372Z" fill="black"/>
</svg>
