<svg width="37" height="37" viewBox="0 0 37 37" fill="none" xmlns="http://www.w3.org/2000/svg">
<path d="M13.875 16.9583H16.9583V20.0416H13.875V16.9583ZM20.0416 16.9583H23.125V20.0416H20.0416V16.9583ZM7.70831 10.7916H29.2916V13.875H7.70831V10.7916ZM7.70831 13.875H10.7916V23.125H7.70831V13.875ZM7.70831 23.125H29.2916V26.2083H7.70831V23.125ZM26.2083 13.875H29.2916V23.125H26.2083V13.875ZM16.9583 7.70831H20.0416V10.7916H16.9583V7.70831ZM3.08331 3.08331H12.3333V6.16665H3.08331V3.08331ZM3.08331 30.8333H12.3333V33.9166H3.08331V30.8333ZM24.6666 3.08331H33.9166V6.16665H24.6666V3.08331ZM24.6666 30.8333H33.9166V33.9166H24.6666V30.8333ZM3.08331 6.16665H6.16665V12.3333H3.08331V6.16665ZM3.08331 24.6666H6.16665V30.8333H3.08331V24.6666ZM30.8333 6.16665H33.9166V12.3333H30.8333V6.16665ZM30.8333 24.6666H33.9166V30.8333H30.8333V24.6666Z" fill="black"/>
</svg>
