<svg width="53" height="53" viewBox="0 0 53 53" fill="none" xmlns="http://www.w3.org/2000/svg">
<path d="M26.5 26.4999V44.1666M26.5 26.4999V28.7083H33.125C36.6391 28.7083 40.0093 27.3123 42.4942 24.8274C44.979 22.3426 46.375 18.9724 46.375 15.4583V13.2499H39.75C36.2359 13.2499 32.8657 14.6459 30.3808 17.1308C27.896 19.6156 26.5 22.9858 26.5 26.4999ZM26.5 22.0833V24.2916H19.875C16.3609 24.2916 12.9907 22.8956 10.5058 20.4107C8.02098 17.9259 6.625 14.5557 6.625 11.0416V8.83325H13.25C16.7641 8.83325 20.1343 10.2292 22.6192 12.7141C25.104 15.1989 26.5 18.5691 26.5 22.0833Z" stroke="black" stroke-width="1.5" stroke-linecap="round" stroke-linejoin="round"/>
</svg>
