<svg width="37" height="37" viewBox="0 0 37 37" fill="none" xmlns="http://www.w3.org/2000/svg">
<path d="M30.8333 11.4438V28.3436C30.8333 29.0527 30.5959 29.6452 30.121 30.1211C29.6462 30.597 29.0532 30.8344 28.342 30.8334H8.65796C7.94777 30.8334 7.35525 30.5959 6.88042 30.1211C6.40558 29.6463 6.16765 29.0532 6.16663 28.342V8.65802C6.16663 7.94783 6.40456 7.35531 6.88042 6.88048C7.35628 6.40565 7.94879 6.16771 8.65796 6.16669H25.5562L30.8333 11.4438ZM20.6783 24.5927C21.2816 23.9904 21.5833 23.2638 21.5833 22.4128C21.5833 21.5618 21.2816 20.8356 20.6783 20.2344C20.075 19.6331 19.3489 19.332 18.5 19.331C17.651 19.3299 16.9249 19.6311 16.3216 20.2344C15.7183 20.8377 15.4166 21.5638 15.4166 22.4128C15.4166 23.2617 15.7183 23.9884 16.3216 24.5927C16.9249 25.197 17.651 25.4982 18.5 25.4961C19.3489 25.494 20.074 25.1929 20.6783 24.5927ZM10.434 15.0606H21.8778V10.4356H10.437L10.434 15.0606Z" fill="#716F6F"/>
</svg>
