<svg width="70" height="70" viewBox="0 0 70 70" fill="none" xmlns="http://www.w3.org/2000/svg">
<path d="M58.3334 21.6504V53.6229C58.3334 54.9646 57.8842 56.0856 56.9859 56.9859C56.0875 57.8861 54.9656 58.3353 53.62 58.3334H16.38C15.0364 58.3334 13.9154 57.8842 13.0171 56.9859C12.1188 56.0875 11.6686 54.9656 11.6667 53.62V16.38C11.6667 15.0364 12.1168 13.9154 13.0171 13.0171C13.9174 12.1188 15.0384 11.6686 16.38 11.6667H48.3496L58.3334 21.6504ZM39.1213 46.5267C40.2627 45.3872 40.8334 44.0125 40.8334 42.4025C40.8334 40.7925 40.2627 39.4188 39.1213 38.2813C37.9799 37.1438 36.6061 36.574 35 36.5721C33.3939 36.5702 32.0202 37.1399 30.8788 38.2813C29.7374 39.4227 29.1667 40.7964 29.1667 42.4025C29.1667 44.0086 29.7374 45.3834 30.8788 46.5267C32.0202 47.67 33.3939 48.2397 35 48.2359C36.6061 48.232 37.9779 47.6622 39.1213 46.5267ZM19.74 28.4929H41.3904V19.7429H19.7459L19.74 28.4929Z" fill="url(#paint0_linear_77_87)"/>
<defs>
<linearGradient id="paint0_linear_77_87" x1="35" y1="11.6667" x2="35" y2="58.3334" gradientUnits="userSpaceOnUse">
<stop stop-color="#35AF4F"/>
<stop offset="1" stop-color="#A1C270"/>
</linearGradient>
</defs>
</svg>
