<svg width="80" height="80" viewBox="0 0 80 80" fill="none" xmlns="http://www.w3.org/2000/svg">
<path d="M52.3129 2.91667C53.2595 2.91667 54.1806 3.22369 54.9379 3.79167C53.3768 4.5477 52.0757 5.75064 51.1997 7.24769C50.3237 8.74475 49.9124 10.4684 50.0181 12.1997C50.1237 13.931 50.7415 15.5918 51.7931 16.9712C52.8446 18.3507 54.2823 19.3865 55.9237 19.9471L57.0262 20.3263C57.4475 20.47 57.8302 20.7082 58.1452 21.0226C58.4601 21.3371 58.6989 21.7194 58.8433 22.1404L59.2196 23.2429C59.6864 24.6103 60.4845 25.8408 61.5427 26.8246C62.6009 27.8084 63.8863 28.5148 65.2841 28.8808C66.6818 29.2468 68.1485 29.2609 69.553 28.922C70.9576 28.583 72.2563 27.9015 73.3333 26.9383V49.5833C73.3333 51.1304 72.7187 52.6142 71.6248 53.7081C70.5308 54.8021 69.0471 55.4167 67.5 55.4167H20.8333C19.2862 55.4167 17.8025 54.8021 16.7085 53.7081C15.6146 52.6142 15 51.1304 15 49.5833V14.5833C15 13.0362 15.6146 11.5525 16.7085 10.4585C17.8025 9.36458 19.2862 8.75 20.8333 8.75H28.3758L32.9258 4.2C33.332 3.79328 33.8144 3.4706 34.3454 3.25039C34.8764 3.03019 35.4456 2.91679 36.0204 2.91667H52.3129ZM44.1667 16.0417C40.2989 16.0417 36.5896 17.5781 33.8547 20.313C31.1198 23.0479 29.5833 26.7573 29.5833 30.625C29.5833 34.4927 31.1198 38.2021 33.8547 40.937C36.5896 43.6719 40.2989 45.2083 44.1667 45.2083C48.0344 45.2083 51.7437 43.6719 54.4786 40.937C57.2135 38.2021 58.75 34.4927 58.75 30.625C58.75 26.7573 57.2135 23.0479 54.4786 20.313C51.7437 17.5781 48.0344 16.0417 44.1667 16.0417ZM44.1667 21.875C45.3157 21.875 46.4535 22.1013 47.5151 22.5411C48.5767 22.9808 49.5413 23.6253 50.3539 24.4378C51.1664 25.2503 51.8109 26.2149 52.2506 27.2765C52.6903 28.3381 52.9167 29.4759 52.9167 30.625C52.9167 31.7741 52.6903 32.9119 52.2506 33.9735C51.8109 35.0351 51.1664 35.9997 50.3539 36.8122C49.5413 37.6247 48.5767 38.2692 47.5151 38.7089C46.4535 39.1487 45.3157 39.375 44.1667 39.375C41.846 39.375 39.6204 38.4531 37.9795 36.8122C36.3385 35.1712 35.4167 32.9456 35.4167 30.625C35.4167 28.3044 36.3385 26.0788 37.9795 24.4378C39.6204 22.7969 41.846 21.875 44.1667 21.875ZM67.5 0C68.0456 -1.21525e-06 68.5804 0.153061 69.0434 0.441792C69.5064 0.730522 69.8791 1.14334 70.1192 1.63333L70.2592 1.97458L70.6383 3.07708C71.0385 4.25012 71.6833 5.32476 72.5301 6.22983C73.3768 7.13491 74.4062 7.84977 75.55 8.32708L76.0896 8.53125L77.1921 8.9075C77.7381 9.09376 78.2165 9.43775 78.567 9.89595C78.9175 10.3541 79.1242 10.906 79.161 11.4817C79.1979 12.0574 79.0632 12.6311 78.774 13.1302C78.4848 13.6293 78.054 14.0315 77.5362 14.2858L77.1921 14.4258L76.0896 14.805C74.9165 15.2052 73.8419 15.85 72.9368 16.6967C72.0318 17.5435 71.3169 18.5728 70.8396 19.7167L70.6354 20.2563L70.2592 21.3588C70.0726 21.9046 69.7283 22.3828 69.27 22.733C68.8116 23.0832 68.2597 23.2896 67.684 23.3261C67.1083 23.3626 66.5348 23.2276 66.0358 22.9382C65.5368 22.6487 65.1349 22.2179 64.8808 21.7L64.7408 21.3588L64.3617 20.2563C63.9615 19.0832 63.3167 18.0086 62.4699 17.1035C61.6232 16.1984 60.5938 15.4836 59.45 15.0063L58.9104 14.8021L57.8079 14.4258C57.2619 14.2396 56.7835 13.8956 56.433 13.4374C56.0825 12.9792 55.8758 12.4273 55.839 11.8517C55.8021 11.276 55.9368 10.7023 56.226 10.2031C56.5152 9.704 56.946 9.30184 57.4637 9.0475L57.8079 8.9075L58.9104 8.52833C60.0835 8.12816 61.1581 7.48335 62.0632 6.6366C62.9682 5.78985 63.6831 4.76049 64.1604 3.61667L64.3646 3.07708L64.7408 1.97458C64.9373 1.3988 65.309 0.898872 65.8037 0.544803C66.2985 0.190733 66.8916 0.000242746 67.5 0Z" fill="url(#paint0_linear_77_85)"/>
<defs>
<linearGradient id="paint0_linear_77_85" x1="47.0835" y1="0" x2="47.0835" y2="55.4167" gradientUnits="userSpaceOnUse">
<stop stop-color="#35AF4F"/>
<stop offset="1" stop-color="#A1C270"/>
</linearGradient>
</defs>
</svg>
