<svg width="70" height="70" viewBox="0 0 70 70" fill="none" xmlns="http://www.w3.org/2000/svg">
<path d="M7 35C7 19.5344 19.5344 7 35 7C50.4656 7 63 19.5344 63 35C63 50.4656 50.4656 63 35 63C19.5344 63 7 50.4656 7 35ZM42 45.5C42 42.5578 40.1953 40.0422 37.625 39.0141V20.125C37.625 18.6703 36.4547 17.5 35 17.5C33.5453 17.5 32.375 18.6703 32.375 20.125V39.0141C29.8047 40.0531 28 42.5687 28 45.5C28 49.3609 31.1391 52.5 35 52.5C38.8609 52.5 42 49.3609 42 45.5ZM22.75 26.25C24.6859 26.25 26.25 24.6859 26.25 22.75C26.25 20.8141 24.6859 19.25 22.75 19.25C20.8141 19.25 19.25 20.8141 19.25 22.75C19.25 24.6859 20.8141 26.25 22.75 26.25ZM21 35C21 33.0641 19.4359 31.5 17.5 31.5C15.5641 31.5 14 33.0641 14 35C14 36.9359 15.5641 38.5 17.5 38.5C19.4359 38.5 21 36.9359 21 35ZM52.5 38.5C54.4359 38.5 56 36.9359 56 35C56 33.0641 54.4359 31.5 52.5 31.5C50.5641 31.5 49 33.0641 49 35C49 36.9359 50.5641 38.5 52.5 38.5ZM50.75 22.75C50.75 20.8141 49.1859 19.25 47.25 19.25C45.3141 19.25 43.75 20.8141 43.75 22.75C43.75 24.6859 45.3141 26.25 47.25 26.25C49.1859 26.25 50.75 24.6859 50.75 22.75Z" fill="url(#paint0_linear_82_14)"/>
<defs>
<linearGradient id="paint0_linear_82_14" x1="35" y1="7" x2="35" y2="63" gradientUnits="userSpaceOnUse">
<stop stop-color="#35AF4F"/>
<stop offset="1" stop-color="#A1C270"/>
</linearGradient>
</defs>
</svg>
