<svg width="70" height="70" viewBox="0 0 70 70" fill="none" xmlns="http://www.w3.org/2000/svg">
<path d="M63.4375 52.5H54.6875V45.9375H61.25C61.5824 45.9374 61.9104 45.8616 62.2091 45.7159C62.5078 45.5701 62.7694 45.3581 62.9739 45.0961C63.1785 44.8341 63.3206 44.5289 63.3896 44.2038C63.4585 43.8786 63.4525 43.542 63.3719 43.2195L54.6219 8.21952C54.5033 7.74652 54.2301 7.3267 53.8457 7.02672C53.4613 6.72674 52.9876 6.56381 52.5 6.56381C52.0124 6.56381 51.5387 6.72674 51.1543 7.02672C50.7699 7.3267 50.4967 7.74652 50.3781 8.21952L41.6281 43.2195C41.5475 43.542 41.5415 43.8786 41.6104 44.2038C41.6794 44.5289 41.8215 44.8341 42.0261 45.0961C42.2306 45.3581 42.4922 45.5701 42.7909 45.7159C43.0896 45.8616 43.4176 45.9374 43.75 45.9375H50.3125V52.5H32.8125V48.125H35C35.5802 48.125 36.1366 47.8945 36.5468 47.4843C36.957 47.0741 37.1875 46.5177 37.1875 45.9375C37.1875 45.3573 36.957 44.8009 36.5468 44.3907C36.1366 43.9805 35.5802 43.75 35 43.75H32.8125V39.375H35C35.5802 39.375 36.1366 39.1445 36.5468 38.7343C36.957 38.3241 37.1875 37.7677 37.1875 37.1875C37.1875 36.6073 36.957 36.0509 36.5468 35.6407C36.1366 35.2305 35.5802 35 35 35H10.9375C10.3573 35 9.80094 35.2305 9.3907 35.6407C8.98047 36.0509 8.75 36.6073 8.75 37.1875C8.75 37.7677 8.98047 38.3241 9.3907 38.7343C9.80094 39.1445 10.3573 39.375 10.9375 39.375H13.125V43.75H10.9375C10.3573 43.75 9.80094 43.9805 9.3907 44.3907C8.98047 44.8009 8.75 45.3573 8.75 45.9375C8.75 46.5177 8.98047 47.0741 9.3907 47.4843C9.80094 47.8945 10.3573 48.125 10.9375 48.125H13.125V52.5H6.5625C5.98234 52.5 5.42594 52.7305 5.0157 53.1407C4.60547 53.5509 4.375 54.1073 4.375 54.6875C4.375 55.2677 4.60547 55.8241 5.0157 56.2343C5.42594 56.6445 5.98234 56.875 6.5625 56.875H63.4375C64.0177 56.875 64.5741 56.6445 64.9843 56.2343C65.3945 55.8241 65.625 55.2677 65.625 54.6875C65.625 54.1073 65.3945 53.5509 64.9843 53.1407C64.5741 52.7305 64.0177 52.5 63.4375 52.5ZM28.4375 52.5H17.5V48.125H28.4375V52.5ZM28.4375 43.75H17.5V39.375H28.4375V43.75ZM31.7188 26.25C33.233 26.25 34.7133 25.801 35.9723 24.9597C37.2314 24.1184 38.2127 22.9227 38.7922 21.5237C39.3717 20.1247 39.5233 18.5852 39.2279 17.1001C38.9325 15.6149 38.2033 14.2507 37.1325 13.18C36.0618 12.1092 34.6976 11.38 33.2124 11.0846C31.7272 10.7892 30.1878 10.9408 28.7888 11.5203C27.3898 12.0998 26.1941 13.0811 25.3528 14.3402C24.5115 15.5992 24.0625 17.0795 24.0625 18.5937C24.0625 20.6243 24.8691 22.5717 26.305 24.0075C27.7408 25.4434 29.6882 26.25 31.7188 26.25ZM31.7188 15.3125C32.3677 15.3125 33.0021 15.5049 33.5417 15.8655C34.0813 16.226 34.5019 16.7385 34.7502 17.3381C34.9986 17.9376 35.0636 18.5974 34.937 19.2339C34.8103 19.8704 34.4978 20.455 34.0389 20.9139C33.5801 21.3728 32.9954 21.6853 32.3589 21.8119C31.7224 21.9385 31.0626 21.8736 30.4631 21.6252C29.8635 21.3769 29.351 20.9563 28.9905 20.4167C28.6299 19.8771 28.4375 19.2427 28.4375 18.5937C28.4375 17.7235 28.7832 16.8889 29.3986 16.2735C30.0139 15.6582 30.8485 15.3125 31.7188 15.3125Z" fill="url(#paint0_linear_77_79)"/>
<defs>
<linearGradient id="paint0_linear_77_79" x1="35" y1="6.56381" x2="35" y2="56.875" gradientUnits="userSpaceOnUse">
<stop stop-color="#35AF4F"/>
<stop offset="1" stop-color="#A1C270"/>
</linearGradient>
</defs>
</svg>
