<svg width="17" height="17" viewBox="0 0 17 17" fill="none" xmlns="http://www.w3.org/2000/svg">
<g opacity="0.79">
<path d="M8.50002 8.14583C8.03037 8.14583 7.57995 7.95926 7.24785 7.62717C6.91576 7.29507 6.72919 6.84465 6.72919 6.375C6.72919 5.90534 6.91576 5.45493 7.24785 5.12283C7.57995 4.79073 8.03037 4.60416 8.50002 4.60416C8.96968 4.60416 9.42009 4.79073 9.75219 5.12283C10.0843 5.45493 10.2709 5.90534 10.2709 6.375C10.2709 6.60755 10.2251 6.83782 10.1361 7.05267C10.0471 7.26751 9.91663 7.46273 9.75219 7.62717C9.58775 7.7916 9.39254 7.92204 9.17769 8.01103C8.96284 8.10003 8.73257 8.14583 8.50002 8.14583ZM8.50002 1.41666C7.18499 1.41666 5.92382 1.93906 4.99395 2.86893C4.06408 3.79879 3.54169 5.05997 3.54169 6.375C3.54169 10.0937 8.50002 15.5833 8.50002 15.5833C8.50002 15.5833 13.4584 10.0937 13.4584 6.375C13.4584 5.05997 12.936 3.79879 12.0061 2.86893C11.0762 1.93906 9.81505 1.41666 8.50002 1.41666Z" fill="black"/>
</g>
</svg>
